<?xml version="1.0" encoding="UTF-8"?>
<svg id="Calque_1" xmlns="http://www.w3.org/2000/svg" version="1.1" viewBox="0 0 231.41 162.08">
  <!-- Generator: Adobe Illustrator 30.3.0, SVG Export Plug-In . SVG Version: 2.1.3 Build 182)  -->
  <defs>
    <style>
      .st0 {
        fill: #db3846;
      }
    </style>
  </defs>
  <g id="wUSLh4">
    <g>
      <path class="st0" d="M169.95,139.25c21.47,5.03,42.34,10.48,61.47,22.68l-53.79-11.06c-31.71-5.17-62.77-6.63-94.77-3.69-28.17,2.59-54.32,8.81-82.85,14.89,18.57-12.19,39.23-17.37,60.21-22.41v-40.72c-3.47,1.09-6.73,1.25-9.1-.23s-4.2-7.01-1.51-9.18l60.2-48.7c2.44-1.98,5.92-3.95,9.1-1.36l35.45,28.93.63-7.81c5.57-.19,9.85-.18,15.82.08l.23,21.03,10.01,9c1.58,1.42.03,6.33-1.57,7.57-2.41,1.86-6.06,2.21-9.52.72v40.27ZM113.22,109.15l-.2-14.61-14.82-.09.1,14.68,14.92.02ZM132.3,109.08l-.15-14.67-14.6.08.27,14.69,14.49-.1ZM113.25,127.81l-.25-14.22-14.8.09.14,14.13h14.91ZM132.32,127.66l-.24-14.15-14.43.03-.05,14.33,14.72-.21Z"/>
      <path class="st0" d="M165.81,54.02c-21.65-12.98-26.47-29.63-17.86-54.02,12.03,5.28,21.5,15.45,23.67,28.68,1.45,8.79-1.06,16.82-5.82,25.34Z"/>
      <path class="st0" d="M212.02,19.16c-1.43,23.7-15,39.72-37.82,38.12.57-23.93,14.6-36.68,37.82-38.12Z"/>
    </g>
  </g>
</svg>